<svg xmlns="http://www.w3.org/2000/svg" xmlns:xlink="http://www.w3.org/1999/xlink" viewBox="0 0 40 40"><defs><path id="a" d="M0 0h40v40H0z"/></defs><clipPath id="b"><use xlink:href="#a" overflow="visible"/></clipPath><path d="M20.3 0C9.5 0 .7 8.8.7 19.7c0 3.4.9 6.8 2.6 9.8L0 39.1c-.1.2 0 .5.1.7.2.1.4.2.6.2h.2l10.6-2.8c2.8 1.4 5.8 2.1 8.9 2.1 10.8 0 19.7-8.8 19.7-19.7C40 8.8 31.2 0 20.3 0" clip-path="url(#b)" fill="#97ba33"/><defs><path id="c" d="M0 0h40v40H0z"/></defs><clipPath id="d"><use xlink:href="#c" overflow="visible"/></clipPath><path d="M24.9 7.8h-9.1c-1.4 0-2.5 1.1-2.5 2.5v18c0 1.4 1.1 2.5 2.5 2.5h9.1c1.4 0 2.5-1.1 2.5-2.5v-18c0-1.4-1.1-2.5-2.5-2.5m-4.5 22.1c-.8 0-1.4-.6-1.4-1.4 0-.8.6-1.4 1.4-1.4.8 0 1.4.6 1.4 1.4 0 .8-.6 1.4-1.4 1.4m4.7-4.7c0 .4-.4.8-.8.8h-7.9c-.4 0-.8-.3-.8-.8v-15c0-.4.4-.8.8-.8h7.9c.4 0 .8.3.8.8v15z" clip-path="url(#d)" fill="#fff"/></svg>