<svg version="1.1" id="Слой_1" xmlns="http://www.w3.org/2000/svg" xmlns:xlink="http://www.w3.org/1999/xlink" x="0" y="0" viewBox="0 0 40 40" xml:space="preserve"><style>.st1{clip-path:url(#SVGID_2_);fill:#fff}</style><defs><path id="SVGID_1_" d="M0 0h40v40H0z"/></defs><clipPath id="SVGID_2_"><use xlink:href="#SVGID_1_" overflow="visible"/></clipPath><path d="M20 0c11 0 20 9 20 20s-9 20-20 20S0 31 0 20 9 0 20 0" clip-path="url(#SVGID_2_)" fill="#7296cd"/><path class="st1" d="M6.9 12.2v15.6l7.6-7.8zm26.2 0v15.6L25.6 20zm-25.6-.7h25l-9.8 10.2c-.7.8-1.7 1.2-2.7 1.2-1 0-2-.4-2.7-1.1L7.5 11.5z"/><path class="st1" d="M23.2 22.3c-.8.9-2 1.4-3.2 1.4-1.2 0-2.4-.5-3.2-1.4l-1.7-1.7-7.6 7.9h25l-7.6-7.9-1.7 1.7z"/></svg>