<svg xmlns="http://www.w3.org/2000/svg" viewBox="0 0 40 40"><path d="M20.3 0C9.5 0 .7 8.8.7 19.7c0 3.4.9 6.8 2.6 9.8L0 39.1c-.1.2 0 .5.1.7.2.1.4.2.6.2h.2l10.6-2.8c2.8 1.4 5.8 2.1 8.9 2.1 10.8 0 19.7-8.8 19.7-19.7C40 8.8 31.2 0 20.3 0" fill="#3dd3a1"/><path d="M13.6 19.7c0 1.4-1.2 2.6-2.6 2.6-1.4 0-2.6-1.2-2.6-2.6 0-1.4 1.2-2.6 2.6-2.6 1.4-.1 2.6 1.1 2.6 2.6m9.3 0c0 1.4-1.2 2.6-2.6 2.6-1.4 0-2.6-1.2-2.6-2.6 0-1.4 1.2-2.6 2.6-2.6 1.5-.1 2.6 1.1 2.6 2.6m9.4 0c0 1.4-1.2 2.6-2.6 2.6-1.4 0-2.6-1.2-2.6-2.6 0-1.4 1.2-2.6 2.6-2.6 1.5-.1 2.6 1.1 2.6 2.6" fill="#fff"/></svg>