<svg xmlns="http://www.w3.org/2000/svg" viewBox="0 0 40 40"><path d="M40 20c0 11-9 20-20 20S0 31 0 20 9 0 20 0s20 9 20 20" fill="#6aacce"/><path d="M30.3 17.3h-.8v-1.1c0-1.7-1.4-3.1-3.2-3.1h-5.2v-2.6c.7-.4 1.1-1.1 1.1-2 0-1.3-1-2.3-2.3-2.3-1.3 0-2.3 1-2.3 2.3 0 .8.5 1.6 1.1 2V13h-5.2c-1.7 0-3.1 1.4-3.1 3.1v1.1h-.7c-1 0-1.8.8-1.8 1.8v3.8c0 1 .8 1.8 1.8 1.8h.8v1.1c0 1.7 1.4 3.1 3.1 3.1h1.5v1.7c0 1 .8 1.8 1.8 1.8H23c1 0 1.8-.8 1.8-1.8v-1.7h1.5c1.7 0 3.2-1.4 3.2-3.1v-1.1h.8c1 0 1.8-.8 1.8-1.8V19c-.1-.9-.9-1.7-1.8-1.7m-17.2 1.2c0-1.2.9-2.1 2.1-2.1 1.2 0 2.1.9 2.1 2.1 0 1.2-.9 2.1-2.1 2.1-1.2 0-2.1-1-2.1-2.1m9.7 7.6h-5.7c-.9 0-1.7-.8-1.7-1.7 0-.9.8-1.7 1.7-1.7h5.7c.9 0 1.7.8 1.7 1.7.1.9-.7 1.7-1.7 1.7m2-5.5c-1.2 0-2.1-.9-2.1-2.1 0-1.2.9-2.1 2.1-2.1 1.2 0 2.1.9 2.1 2.1 0 1.1-.9 2.1-2.1 2.1" fill="#fff"/></svg>