<svg xmlns="http://www.w3.org/2000/svg" viewBox="0 0 40 40"><path d="M20 0C9 0 0 9 0 20s9 20 20 20 20-9 20-20S31 0 20 0zm-7.5 13.7H24l-.1-.1c-.6-.6-.6-1.5 0-2.1.6-.6 1.5-.6 2 0l2.7 2.7v.1c.1.1.2.3.3.4.1.2.1.4.1.6v.4c-.1.2-.2.4-.4.6L25.9 19c-.3.3-.6.4-1 .4s-.7-.2-1-.4c-.6-.6-.5-1.5 0-2.1l.1-.2H12.5c-.8 0-1.4-.7-1.4-1.5-.1-.9.6-1.5 1.4-1.5zm15.1 12.6H16l.1.2c.6.6.6 1.5 0 2.1-.3.3-.7.4-1 .4-.4 0-.7-.1-1-.4l-2.7-2.7h-.1c-.2-.2-.3-.4-.4-.6 0-.1-.1-.2-.1-.4s.1-.3.1-.5c.1-.2.2-.4.4-.5l2.7-2.7c.6-.6 1.5-.6 2 0 .6.6.5 1.5 0 2.1v.1h11.5c.8 0 1.4.7 1.4 1.5.1.7-.5 1.4-1.3 1.4z" fill="#dab81a"/></svg>