<svg xmlns="http://www.w3.org/2000/svg" xmlns:xlink="http://www.w3.org/1999/xlink" viewBox="0 0 40 40"><defs><path id="a" d="M9.3 30.2c-3-1.8-3.5-2.6-3.5-6.1V17c0-.5.1-.7.3-1.1.3-.6 1-.9 1.6-.9.3 0 .6.1.9.2l5.7 3.3c1.7 1 2.9 3.1 3.1 5.4V34c0 .3-.2.5-.5.5-.1 0-.2 0-.2-.1l-7.4-4.2zm24.8-15c0 .1.1.2.1.2v8.7c-.1 3.7-.6 4.4-4.1 6.4l-5.8 3.4c-.4.2-.7.3-1.1.3-.7 0-1.3-.4-1.6-.9-.2-.3-.3-.6-.3-.9v-6.7c0-2 1.3-4.2 3.2-5.5l8.9-5.1c.3-.2.6-.2.7.1m-16.3.9l-9-5.1c-.2-.1-.3-.4-.2-.7 0-.1.1-.1.2-.2l7.6-4.4C19.7 4 20.6 4 24.1 6l5.8 3.3c.4.2.6.4.8.8.3.6.3 1.3 0 1.9-.2.3-.4.5-.7.7l-5.8 3.4c-.9.5-1.9.8-3.1.8-1.1 0-2.2-.3-3.3-.8M20 0c-1.3 0-2.6.3-3.7 1L5.6 7.3C3.4 8.6 2 11 2 13.6v12.8c0 2.6 1.4 5 3.6 6.3L16.3 39c1.1.7 2.4 1 3.7 1 1.3 0 2.6-.3 3.7-1l10.7-6.3c2.2-1.3 3.6-3.7 3.6-6.3V13.6c0-2.6-1.4-5-3.6-6.3L23.7 1C22.6.3 21.3 0 20 0z"/></defs><clipPath id="b"><use xlink:href="#a" overflow="visible"/></clipPath><linearGradient id="c" gradientUnits="userSpaceOnUse" x1="-87.086" y1="140" x2="-86.919" y2="140" gradientTransform="matrix(219.5379 -11.5055 10.3552 243.9254 17670.57 -35130.559)"><stop offset="0" stop-color="#6f00f9"/><stop offset="1" stop-color="#69bac0"/></linearGradient><path clip-path="url(#b)" fill="url(#c)" d="M2.1 41.9l37.6-2-1.8-41.8L.3.1z"/></svg>